<svg xmlns="http://www.w3.org/2000/svg" viewBox="0 0 52.5 43.96"><defs><style>.cls-1{fill:#CCC;}</style></defs><title>Asset 4</title><g id="Layer_2" data-name="Layer 2"><g id="Layer_1-2" data-name="Layer 1"><path class="cls-1" d="M43.09,34.53H39.45a.62.62,0,0,0-.57.63.61.61,0,0,0,.61.57h8.37a.6.6,0,1,0,0-1.2H43.09Zm.59-7a7.63,7.63,0,1,1-5.41,2.25A7.6,7.6,0,0,1,43.68,27.54ZM35.21,7.78H44a2.48,2.48,0,0,1,2.54,2.48V26.85A8.87,8.87,0,0,0,37.43,29,8.72,8.72,0,0,0,35.36,38H3.71a2.48,2.48,0,0,1-2.52-2.5l0-25.12v-.09l0,0a4.24,4.24,0,0,1,0-.5,2.63,2.63,0,0,1,.38-.91,1.7,1.7,0,0,1,.3-.36A2.6,2.6,0,0,1,2.74,8a3.62,3.62,0,0,1,.48-.15h0a3,3,0,0,1,.44,0h31.5ZM3.7,1.2H29.92a4.08,4.08,0,0,1,3.57,2.65l.81,2.73H3.72A3,3,0,0,0,3,6.67a6.35,6.35,0,0,0-.63.19,3.27,3.27,0,0,0-1.12.72l0-3.87a2.48,2.48,0,0,1,.7-1.77A2.44,2.44,0,0,1,3.7,1.2Zm0-1.2A3.75,3.75,0,0,0,1.08,1.09,3.71,3.71,0,0,0,0,3.7V35.51a3.72,3.72,0,0,0,3.72,3.7H35.84a9.18,9.18,0,0,0,1.59,2.17,8.87,8.87,0,0,0,12.5,0,8.78,8.78,0,0,0,0-12.44,8.19,8.19,0,0,0-2.2-1.62l0-17A3.72,3.72,0,0,0,44,6.58H35.52l-.89-3.05A5.08,5.08,0,0,0,29.92,0H3.72Z"/></g></g></svg>